<mxfile host="Electron" agent="Mozilla/5.0 (X11; Linux x86_64) AppleWebKit/537.36 (KHTML, like Gecko) draw.io/26.0.9 Chrome/128.0.6613.186 Electron/32.2.5 Safari/537.36" version="26.0.9">
  <diagram id="PoCk2VvPzZxh5MRQDvAy" name="Page-1">
    <mxGraphModel dx="2068" dy="958" grid="1" gridSize="10" guides="1" tooltips="1" connect="1" arrows="1" fold="1" page="1" pageScale="1" pageWidth="700" pageHeight="1000" math="0" shadow="0">
      <root>
        <mxCell id="0" />
        <mxCell id="1" parent="0" />
        <mxCell id="legend_container" style="group" parent="1" vertex="1">
          <mxGeometry x="-400" y="10" width="240" height="220" as="geometry" />
        </mxCell>
        <mxCell id="legend_bg" style="rounded=0;whiteSpace=wrap;html=1;fillColor=#ffffff;strokeColor=#666666;" parent="legend_container" vertex="1">
          <mxGeometry width="240" height="220" as="geometry" />
        </mxCell>
        <mxCell id="legend_title" value="Network Connection Types" style="text;html=1;strokeColor=none;fillColor=none;align=center;verticalAlign=middle;whiteSpace=wrap;rounded=0;fontSize=14;fontStyle=1" parent="legend_container" vertex="1">
          <mxGeometry y="10" width="240" height="20" as="geometry" />
        </mxCell>
        <mxCell id="legend_line_0_start" style="point;" parent="legend_container" vertex="1">
          <mxGeometry x="20" y="50" width="1" height="1" as="geometry" />
        </mxCell>
        <mxCell id="legend_line_0_end" style="point;" parent="legend_container" vertex="1">
          <mxGeometry x="60" y="50" width="1" height="1" as="geometry" />
        </mxCell>
        <mxCell id="legend_line_0" style="endArrow=none;html=1;strokeWidth=3;strokeColor=#b85450;" parent="legend_container" source="legend_line_0_start" target="legend_line_0_end" edge="1">
          <mxGeometry relative="1" as="geometry" />
        </mxCell>
        <mxCell id="legend_text_0" value="Fabric Links" style="text;html=1;strokeColor=none;fillColor=none;align=left;verticalAlign=middle;whiteSpace=wrap;rounded=0;fontSize=14;" parent="legend_container" vertex="1">
          <mxGeometry x="70" y="40" width="140" height="20" as="geometry" />
        </mxCell>
        <mxCell id="legend_line_1_start" style="point;" parent="legend_container" vertex="1">
          <mxGeometry x="20" y="80" width="1" height="1" as="geometry" />
        </mxCell>
        <mxCell id="legend_line_1_end" style="point;" parent="legend_container" vertex="1">
          <mxGeometry x="60" y="80" width="1" height="1" as="geometry" />
        </mxCell>
        <mxCell id="legend_line_1" style="endArrow=none;html=1;strokeWidth=2;strokeColor=#6c8ebf;dashed=1;" parent="legend_container" source="legend_line_1_start" target="legend_line_1_end" edge="1">
          <mxGeometry relative="1" as="geometry" />
        </mxCell>
        <mxCell id="legend_text_1" value="MLAG Peer Links" style="text;html=1;strokeColor=none;fillColor=none;align=left;verticalAlign=middle;whiteSpace=wrap;rounded=0;fontSize=14;" parent="legend_container" vertex="1">
          <mxGeometry x="70" y="70" width="140" height="20" as="geometry" />
        </mxCell>
        <mxCell id="legend_line_2_start" style="point;" parent="legend_container" vertex="1">
          <mxGeometry x="20" y="110" width="1" height="1" as="geometry" />
        </mxCell>
        <mxCell id="legend_line_2_end" style="point;" parent="legend_container" vertex="1">
          <mxGeometry x="60" y="110" width="1" height="1" as="geometry" />
        </mxCell>
        <mxCell id="legend_line_2" style="endArrow=none;html=1;strokeWidth=2;strokeColor=#82b366;dashed=1;" parent="legend_container" source="legend_line_2_start" target="legend_line_2_end" edge="1">
          <mxGeometry relative="1" as="geometry" />
        </mxCell>
        <mxCell id="legend_text_2" value="MLAG Server Links" style="text;html=1;strokeColor=none;fillColor=none;align=left;verticalAlign=middle;whiteSpace=wrap;rounded=0;fontSize=14;" parent="legend_container" vertex="1">
          <mxGeometry x="70" y="100" width="140" height="20" as="geometry" />
        </mxCell>
        <mxCell id="legend_line_3_start" style="point;" parent="legend_container" vertex="1">
          <mxGeometry x="20" y="140" width="1" height="1" as="geometry" />
        </mxCell>
        <mxCell id="legend_line_3_end" style="point;" parent="legend_container" vertex="1">
          <mxGeometry x="60" y="140" width="1" height="1" as="geometry" />
        </mxCell>
        <mxCell id="legend_line_3" style="endArrow=none;html=1;strokeWidth=2;strokeColor=#82b366;" parent="legend_container" source="legend_line_3_start" target="legend_line_3_end" edge="1">
          <mxGeometry relative="1" as="geometry" />
        </mxCell>
        <mxCell id="legend_text_3" value="Bundled Server Links" style="text;html=1;strokeColor=none;fillColor=none;align=left;verticalAlign=middle;whiteSpace=wrap;rounded=0;fontSize=14;" parent="legend_container" vertex="1">
          <mxGeometry x="70" y="130" width="140" height="20" as="geometry" />
        </mxCell>
        <mxCell id="legend_line_4_start" style="point;" parent="legend_container" vertex="1">
          <mxGeometry x="20" y="170" width="1" height="1" as="geometry" />
        </mxCell>
        <mxCell id="legend_line_4_end" style="point;" parent="legend_container" vertex="1">
          <mxGeometry x="60" y="170" width="1" height="1" as="geometry" />
        </mxCell>
        <mxCell id="legend_line_4" style="endArrow=none;html=1;strokeWidth=2;strokeColor=#666666;" parent="legend_container" source="legend_line_4_start" target="legend_line_4_end" edge="1">
          <mxGeometry relative="1" as="geometry" />
        </mxCell>
        <mxCell id="legend_text_4" value="Unbundled Server Links" style="text;html=1;strokeColor=none;fillColor=none;align=left;verticalAlign=middle;whiteSpace=wrap;rounded=0;fontSize=14;" parent="legend_container" vertex="1">
          <mxGeometry x="70" y="160" width="140" height="20" as="geometry" />
        </mxCell>
        <mxCell id="legend_line_5_start" style="point;" parent="legend_container" vertex="1">
          <mxGeometry x="20" y="200" width="1" height="1" as="geometry" />
        </mxCell>
        <mxCell id="legend_line_5_end" style="point;" parent="legend_container" vertex="1">
          <mxGeometry x="60" y="200" width="1" height="1" as="geometry" />
        </mxCell>
        <mxCell id="legend_line_5" style="endArrow=none;html=1;strokeWidth=2;strokeColor=#d79b00;dashed=1;" parent="legend_container" source="legend_line_5_start" target="legend_line_5_end" edge="1">
          <mxGeometry relative="1" as="geometry" />
        </mxCell>
        <mxCell id="legend_text_5" value="ESLAG Server Links" style="text;html=1;strokeColor=none;fillColor=none;align=left;verticalAlign=middle;whiteSpace=wrap;rounded=0;fontSize=14;" parent="legend_container" vertex="1">
          <mxGeometry x="70" y="190" width="140" height="20" as="geometry" />
        </mxCell>
        <mxCell id="ds4000-01" value="ds4000-01&#xa;spine" style="shape=rectangle;whiteSpace=wrap;html=1;fontSize=11;rounded=1;fillColor=#f8cecc;strokeColor=#b85450;" parent="1" vertex="1">
          <mxGeometry x="175" y="100" width="100" height="50" as="geometry" />
        </mxCell>
        <mxCell id="ds4000-02" value="ds4000-02&#xa;spine" style="shape=rectangle;whiteSpace=wrap;html=1;fontSize=11;rounded=1;fillColor=#f8cecc;strokeColor=#b85450;" parent="1" vertex="1">
          <mxGeometry x="425" y="100" width="100" height="50" as="geometry" />
        </mxCell>
        <mxCell id="ds3000-01" value="ds3000-01&#xa;server-leaf" style="shape=rectangle;whiteSpace=wrap;html=1;fontSize=11;rounded=1;fillColor=#dae8fc;strokeColor=#6c8ebf;" parent="1" vertex="1">
          <mxGeometry x="-75" y="350" width="100" height="50" as="geometry" />
        </mxCell>
        <mxCell id="ds3000-02" value="ds3000-02&#xa;server-leaf" style="shape=rectangle;whiteSpace=wrap;html=1;fontSize=11;rounded=1;fillColor=#dae8fc;strokeColor=#6c8ebf;" parent="1" vertex="1">
          <mxGeometry x="175" y="350" width="100" height="50" as="geometry" />
        </mxCell>
        <mxCell id="ds3000-03" value="ds3000-03&#xa;server-leaf" style="shape=rectangle;whiteSpace=wrap;html=1;fontSize=11;rounded=1;fillColor=#dae8fc;strokeColor=#6c8ebf;" parent="1" vertex="1">
          <mxGeometry x="425" y="350" width="100" height="50" as="geometry" />
        </mxCell>
        <mxCell id="sse-c4632-01" value="sse-c4632-01&#xa;server-leaf" style="shape=rectangle;whiteSpace=wrap;html=1;fontSize=11;rounded=1;fillColor=#dae8fc;strokeColor=#6c8ebf;" parent="1" vertex="1">
          <mxGeometry x="675" y="350" width="100" height="50" as="geometry" />
        </mxCell>
        <mxCell id="server-1" value="server-1" style="shape=rectangle;whiteSpace=wrap;html=1;fontSize=11;rounded=0;fillColor=#d5e8d4;strokeColor=#82b366;" parent="1" vertex="1">
          <mxGeometry x="-400" y="600" width="100" height="50" as="geometry" />
        </mxCell>
        <mxCell id="server-2" value="server-2" style="shape=rectangle;whiteSpace=wrap;html=1;fontSize=11;rounded=0;fillColor=#d5e8d4;strokeColor=#82b366;" parent="1" vertex="1">
          <mxGeometry x="-225" y="600" width="100" height="50" as="geometry" />
        </mxCell>
        <mxCell id="server-3" value="server-3" style="shape=rectangle;whiteSpace=wrap;html=1;fontSize=11;rounded=0;fillColor=#d5e8d4;strokeColor=#82b366;" parent="1" vertex="1">
          <mxGeometry x="-50" y="600" width="100" height="50" as="geometry" />
        </mxCell>
        <mxCell id="server-4" value="server-4" style="shape=rectangle;whiteSpace=wrap;html=1;fontSize=11;rounded=0;fillColor=#d5e8d4;strokeColor=#82b366;" parent="1" vertex="1">
          <mxGeometry x="125" y="600" width="100" height="50" as="geometry" />
        </mxCell>
        <mxCell id="server-7" value="server-7" style="shape=rectangle;whiteSpace=wrap;html=1;fontSize=11;rounded=0;fillColor=#d5e8d4;strokeColor=#82b366;" parent="1" vertex="1">
          <mxGeometry x="300" y="600" width="100" height="50" as="geometry" />
        </mxCell>
        <mxCell id="server-8" value="server-8" style="shape=rectangle;whiteSpace=wrap;html=1;fontSize=11;rounded=0;fillColor=#d5e8d4;strokeColor=#82b366;" parent="1" vertex="1">
          <mxGeometry x="475" y="600" width="100" height="50" as="geometry" />
        </mxCell>
        <mxCell id="server-9" value="server-9" style="shape=rectangle;whiteSpace=wrap;html=1;fontSize=11;rounded=0;fillColor=#d5e8d4;strokeColor=#82b366;" parent="1" vertex="1">
          <mxGeometry x="650" y="600" width="100" height="50" as="geometry" />
        </mxCell>
        <mxCell id="server-5" value="server-5" style="shape=rectangle;whiteSpace=wrap;html=1;fontSize=11;rounded=0;fillColor=#d5e8d4;strokeColor=#82b366;" parent="1" vertex="1">
          <mxGeometry x="825" y="600" width="100" height="50" as="geometry" />
        </mxCell>
        <mxCell id="server-6" value="server-6" style="shape=rectangle;whiteSpace=wrap;html=1;fontSize=11;rounded=0;fillColor=#d5e8d4;strokeColor=#82b366;" parent="1" vertex="1">
          <mxGeometry x="1000" y="600" width="100" height="50" as="geometry" />
        </mxCell>
        <mxCell id="e0_0" style="endArrow=none;html=1;strokeWidth=2;strokeColor=#666666;fontSize=10;spacing=5;exitX=0.550;exitY=0.000;exitDx=0;exitDy=0;entryX=0.450;entryY=1.000;entryDx=0;entryDy=0;" parent="1" source="server-4" target="ds3000-02" edge="1">
          <mxGeometry relative="1" fixed="1" as="geometry" />
        </mxCell>
        <mxCell id="e0_0_src" value="enp2s1" style="edgeLabel;html=1;align=center;verticalAlign=middle;resizable=0;points=[];labelBackgroundColor=#ffffff;fontSize=10;rotation=-78.69;" parent="e0_0" vertex="1" connectable="0">
          <mxGeometry x="0.5" y="0.5" width="60" height="20" relative="1" fixed="1" as="geometry">
            <mxPoint x="-56" y="115" as="offset" />
          </mxGeometry>
        </mxCell>
        <mxCell id="e0_0_tgt" value="E1/1/4" style="edgeLabel;html=1;align=center;verticalAlign=middle;resizable=0;points=[];labelBackgroundColor=#ffffff;fontSize=10;rotation=-78.69;" parent="e0_0" vertex="1" connectable="0">
          <mxGeometry x="0.5" y="0.5" width="60" height="20" relative="1" fixed="1" as="geometry">
            <mxPoint x="-25" y="-35" as="offset" />
          </mxGeometry>
        </mxCell>
        <mxCell id="e1_0" style="endArrow=none;html=1;strokeWidth=2;strokeColor=#b85450;fontSize=10;spacing=5;exitX=0.022;exitY=1.089;exitDx=0;exitDy=0;entryX=1.022;entryY=0.089;entryDx=0;entryDy=0;" parent="1" source="ds4000-02" target="ds3000-01" edge="1">
          <mxGeometry relative="1" fixed="1" as="geometry" />
        </mxCell>
        <mxCell id="e1_0_src" value="E1/1" style="edgeLabel;html=1;align=center;verticalAlign=middle;resizable=0;points=[];labelBackgroundColor=#ffffff;fontSize=10;rotation=333.43;" parent="e1_0" vertex="1" connectable="0">
          <mxGeometry x="0.5" y="0.5" width="60" height="20" relative="1" fixed="1" as="geometry">
            <mxPoint x="258" y="-155" as="offset" />
          </mxGeometry>
        </mxCell>
        <mxCell id="e1_0_tgt" value="E1/30" style="edgeLabel;html=1;align=center;verticalAlign=middle;resizable=0;points=[];labelBackgroundColor=#ffffff;fontSize=10;rotation=333.43;" parent="e1_0" vertex="1" connectable="0">
          <mxGeometry x="0.5" y="0.5" width="60" height="20" relative="1" fixed="1" as="geometry">
            <mxPoint x="-111" y="31" as="offset" />
          </mxGeometry>
        </mxCell>
        <mxCell id="e1_1" style="endArrow=none;html=1;strokeWidth=2;strokeColor=#b85450;fontSize=10;spacing=5;exitX=-0.022;exitY=0.911;exitDx=0;exitDy=0;entryX=0.978;entryY=-0.089;entryDx=0;entryDy=0;" parent="1" source="ds4000-02" target="ds3000-01" edge="1">
          <mxGeometry relative="1" fixed="1" as="geometry" />
        </mxCell>
        <mxCell id="e1_1_src" value="E1/2" style="edgeLabel;html=1;align=center;verticalAlign=middle;resizable=0;points=[];labelBackgroundColor=#ffffff;fontSize=10;rotation=333.43;" parent="e1_1" vertex="1" connectable="0">
          <mxGeometry x="0.5" y="0.5" width="60" height="20" relative="1" fixed="1" as="geometry">
            <mxPoint x="259" y="-157" as="offset" />
          </mxGeometry>
        </mxCell>
        <mxCell id="e1_1_tgt" value="E1/31" style="edgeLabel;html=1;align=center;verticalAlign=middle;resizable=0;points=[];labelBackgroundColor=#ffffff;fontSize=10;rotation=333.43;" parent="e1_1" vertex="1" connectable="0">
          <mxGeometry x="0.5" y="0.5" width="60" height="20" relative="1" fixed="1" as="geometry">
            <mxPoint x="-111" y="30" as="offset" />
          </mxGeometry>
        </mxCell>
        <mxCell id="e2_0" style="endArrow=none;html=1;strokeWidth=2;strokeColor=#6c8ebf;dashed=1;fontSize=10;spacing=5;exitX=0.650;exitY=0.000;exitDx=0;exitDy=0;entryX=0.350;entryY=1.000;entryDx=0;entryDy=0;" parent="1" source="server-2" target="ds3000-01" edge="1">
          <mxGeometry relative="1" fixed="1" as="geometry" />
        </mxCell>
        <mxCell id="e2_0_src" value="enp2s1" style="edgeLabel;html=1;align=center;verticalAlign=middle;resizable=0;points=[];labelBackgroundColor=#ffffff;fontSize=10;rotation=-59.04;" parent="e2_0" vertex="1" connectable="0">
          <mxGeometry x="0.5" y="0.5" width="60" height="20" relative="1" fixed="1" as="geometry">
            <mxPoint x="-108" y="117" as="offset" />
          </mxGeometry>
        </mxCell>
        <mxCell id="e2_0_tgt" value="E1/1/3" style="edgeLabel;html=1;align=center;verticalAlign=middle;resizable=0;points=[];labelBackgroundColor=#ffffff;fontSize=10;rotation=-59.04;" parent="e2_0" vertex="1" connectable="0">
          <mxGeometry x="0.5" y="0.5" width="60" height="20" relative="1" fixed="1" as="geometry">
            <mxPoint x="-13" y="-39" as="offset" />
          </mxGeometry>
        </mxCell>
        <mxCell id="e3_0" style="endArrow=none;html=1;strokeWidth=2;strokeColor=#b85450;fontSize=10;spacing=5;exitX=0.550;exitY=1.000;exitDx=0;exitDy=0;entryX=0.550;entryY=0.000;entryDx=0;entryDy=0;" parent="1" source="ds4000-02" target="ds3000-03" edge="1">
          <mxGeometry relative="1" fixed="1" as="geometry" />
        </mxCell>
        <mxCell id="e3_0_src" value="E1/5" style="edgeLabel;html=1;align=center;verticalAlign=middle;resizable=0;points=[];labelBackgroundColor=#ffffff;fontSize=10;rotation=90.00;" parent="e3_0" vertex="1" connectable="0">
          <mxGeometry x="0.5" y="0.5" width="60" height="20" relative="1" fixed="1" as="geometry">
            <mxPoint x="-30" y="-142" as="offset" />
          </mxGeometry>
        </mxCell>
        <mxCell id="e3_0_tgt" value="E1/30" style="edgeLabel;html=1;align=center;verticalAlign=middle;resizable=0;points=[];labelBackgroundColor=#ffffff;fontSize=10;rotation=90.00;" parent="e3_0" vertex="1" connectable="0">
          <mxGeometry x="0.5" y="0.5" width="60" height="20" relative="1" fixed="1" as="geometry">
            <mxPoint x="-30" y="18" as="offset" />
          </mxGeometry>
        </mxCell>
        <mxCell id="e3_1" style="endArrow=none;html=1;strokeWidth=2;strokeColor=#b85450;fontSize=10;spacing=5;exitX=0.450;exitY=1.000;exitDx=0;exitDy=0;entryX=0.450;entryY=0.000;entryDx=0;entryDy=0;" parent="1" source="ds4000-02" target="ds3000-03" edge="1">
          <mxGeometry relative="1" fixed="1" as="geometry" />
        </mxCell>
        <mxCell id="e3_1_src" value="E1/6" style="edgeLabel;html=1;align=center;verticalAlign=middle;resizable=0;points=[];labelBackgroundColor=#ffffff;fontSize=10;rotation=90.00;" parent="e3_1" vertex="1" connectable="0">
          <mxGeometry x="0.5" y="0.5" width="60" height="20" relative="1" fixed="1" as="geometry">
            <mxPoint x="-30" y="-142" as="offset" />
          </mxGeometry>
        </mxCell>
        <mxCell id="e3_1_tgt" value="E1/31" style="edgeLabel;html=1;align=center;verticalAlign=middle;resizable=0;points=[];labelBackgroundColor=#ffffff;fontSize=10;rotation=90.00;" parent="e3_1" vertex="1" connectable="0">
          <mxGeometry x="0.5" y="0.5" width="60" height="20" relative="1" fixed="1" as="geometry">
            <mxPoint x="-30" y="18" as="offset" />
          </mxGeometry>
        </mxCell>
        <mxCell id="e4_0" style="endArrow=none;html=1;strokeWidth=2;strokeColor=#6c8ebf;dashed=1;fontSize=10;spacing=5;exitX=1.000;exitY=0.065;exitDx=0;exitDy=0;entryX=0.000;entryY=0.935;entryDx=0;entryDy=0;" parent="1" source="server-1" target="ds3000-02" edge="1">
          <mxGeometry relative="1" fixed="1" as="geometry" />
        </mxCell>
        <mxCell id="e4_0_src" value="enp2s2" style="edgeLabel;html=1;align=center;verticalAlign=middle;resizable=0;points=[];labelBackgroundColor=#ffffff;fontSize=10;rotation=-23.50;" parent="e4_0" vertex="1" connectable="0">
          <mxGeometry x="0.5" y="0.5" width="60" height="20" relative="1" fixed="1" as="geometry">
            <mxPoint x="-362" y="133" as="offset" />
          </mxGeometry>
        </mxCell>
        <mxCell id="e4_0_tgt" value="E1/1/2" style="edgeLabel;html=1;align=center;verticalAlign=middle;resizable=0;points=[];labelBackgroundColor=#ffffff;fontSize=10;rotation=-23.50;" parent="e4_0" vertex="1" connectable="0">
          <mxGeometry x="0.5" y="0.5" width="60" height="20" relative="1" fixed="1" as="geometry">
            <mxPoint x="69" y="-54" as="offset" />
          </mxGeometry>
        </mxCell>
        <mxCell id="e5_0" style="endArrow=none;html=1;strokeWidth=2;strokeColor=#d79b00;dashed=1;fontSize=10;spacing=5;exitX=0.100;exitY=0.000;exitDx=0;exitDy=0;entryX=0.900;entryY=1.000;entryDx=0;entryDy=0;" parent="1" source="server-5" target="ds3000-03" edge="1">
          <mxGeometry relative="1" fixed="1" as="geometry" />
        </mxCell>
        <mxCell id="e5_0_src" value="enp2s1" style="edgeLabel;html=1;align=center;verticalAlign=middle;resizable=0;points=[];labelBackgroundColor=#ffffff;fontSize=10;rotation=32.01;" parent="e5_0" vertex="1" connectable="0">
          <mxGeometry x="0.5" y="0.5" width="60" height="20" relative="1" fixed="1" as="geometry">
            <mxPoint x="186" y="122" as="offset" />
          </mxGeometry>
        </mxCell>
        <mxCell id="e5_0_tgt" value="E1/1/3" style="edgeLabel;html=1;align=center;verticalAlign=middle;resizable=0;points=[];labelBackgroundColor=#ffffff;fontSize=10;rotation=32.01;" parent="e5_0" vertex="1" connectable="0">
          <mxGeometry x="0.5" y="0.5" width="60" height="20" relative="1" fixed="1" as="geometry">
            <mxPoint x="-89" y="-48" as="offset" />
          </mxGeometry>
        </mxCell>
        <mxCell id="e6_0" style="endArrow=none;html=1;strokeWidth=2;strokeColor=#d79b00;dashed=1;fontSize=10;spacing=5;exitX=0.350;exitY=0.000;exitDx=0;exitDy=0;entryX=0.650;entryY=1.000;entryDx=0;entryDy=0;" parent="1" source="server-5" target="sse-c4632-01" edge="1">
          <mxGeometry relative="1" fixed="1" as="geometry" />
        </mxCell>
        <mxCell id="e6_0_src" value="enp2s2" style="edgeLabel;html=1;align=center;verticalAlign=middle;resizable=0;points=[];labelBackgroundColor=#ffffff;fontSize=10;rotation=59.04;" parent="e6_0" vertex="1" connectable="0">
          <mxGeometry x="0.5" y="0.5" width="60" height="20" relative="1" fixed="1" as="geometry">
            <mxPoint x="48" y="116" as="offset" />
          </mxGeometry>
        </mxCell>
        <mxCell id="e6_0_tgt" value="E1/1/3" style="edgeLabel;html=1;align=center;verticalAlign=middle;resizable=0;points=[];labelBackgroundColor=#ffffff;fontSize=10;rotation=59.04;" parent="e6_0" vertex="1" connectable="0">
          <mxGeometry x="0.5" y="0.5" width="60" height="20" relative="1" fixed="1" as="geometry">
            <mxPoint x="-47" y="-40" as="offset" />
          </mxGeometry>
        </mxCell>
        <mxCell id="e7_0" style="endArrow=none;html=1;strokeWidth=2;strokeColor=#d79b00;dashed=1;fontSize=10;spacing=5;exitX=0.175;exitY=0.000;exitDx=0;exitDy=0;entryX=0.825;entryY=1.000;entryDx=0;entryDy=0;" parent="1" source="server-6" target="sse-c4632-01" edge="1">
          <mxGeometry relative="1" fixed="1" as="geometry" />
        </mxCell>
        <mxCell id="e7_0_src" value="enp2s2" style="edgeLabel;html=1;align=center;verticalAlign=middle;resizable=0;points=[];labelBackgroundColor=#ffffff;fontSize=10;rotation=37.57;" parent="e7_0" vertex="1" connectable="0">
          <mxGeometry x="0.5" y="0.5" width="60" height="20" relative="1" fixed="1" as="geometry">
            <mxPoint x="144" y="121" as="offset" />
          </mxGeometry>
        </mxCell>
        <mxCell id="e7_0_tgt" value="E1/10/4" style="edgeLabel;html=1;align=center;verticalAlign=middle;resizable=0;points=[];labelBackgroundColor=#ffffff;fontSize=10;rotation=37.57;" parent="e7_0" vertex="1" connectable="0">
          <mxGeometry x="0.5" y="0.5" width="60" height="20" relative="1" fixed="1" as="geometry">
            <mxPoint x="-72" y="-43" as="offset" />
          </mxGeometry>
        </mxCell>
        <mxCell id="e8_0" style="endArrow=none;html=1;strokeWidth=2;strokeColor=#6c8ebf;dashed=1;fontSize=10;spacing=5;exitX=1.000;exitY=0.400;exitDx=0;exitDy=0;entryX=0.000;entryY=0.400;entryDx=0;entryDy=0;" parent="1" source="ds3000-01" target="ds3000-02" edge="1">
          <mxGeometry relative="1" fixed="1" as="geometry" />
        </mxCell>
        <mxCell id="e8_0_src" value="E1/32/1" style="edgeLabel;html=1;align=center;verticalAlign=middle;resizable=0;points=[];labelBackgroundColor=#ffffff;fontSize=10;rotation=0.00;" parent="e8_0" vertex="1" connectable="0">
          <mxGeometry x="0.5" y="0.5" width="60" height="20" relative="1" fixed="1" as="geometry">
            <mxPoint x="-117" y="-11" as="offset" />
          </mxGeometry>
        </mxCell>
        <mxCell id="e8_0_tgt" value="E1/32/1" style="edgeLabel;html=1;align=center;verticalAlign=middle;resizable=0;points=[];labelBackgroundColor=#ffffff;fontSize=10;rotation=0.00;" parent="e8_0" vertex="1" connectable="0">
          <mxGeometry x="0.5" y="0.5" width="60" height="20" relative="1" fixed="1" as="geometry">
            <mxPoint x="-16" y="-10" as="offset" />
          </mxGeometry>
        </mxCell>
        <mxCell id="e8_1" style="endArrow=none;html=1;strokeWidth=2;strokeColor=#6c8ebf;dashed=1;fontSize=10;spacing=5;exitX=1.000;exitY=0.600;exitDx=0;exitDy=0;entryX=0.000;entryY=0.600;entryDx=0;entryDy=0;" parent="1" source="ds3000-01" target="ds3000-02" edge="1">
          <mxGeometry relative="1" fixed="1" as="geometry" />
        </mxCell>
        <mxCell id="e8_1_src" value="E1/32/2" style="edgeLabel;html=1;align=center;verticalAlign=middle;resizable=0;points=[];labelBackgroundColor=#ffffff;fontSize=10;rotation=0.00;" parent="e8_1" vertex="1" connectable="0">
          <mxGeometry x="0.5" y="0.5" width="60" height="20" relative="1" fixed="1" as="geometry">
            <mxPoint x="-117" y="-11" as="offset" />
          </mxGeometry>
        </mxCell>
        <mxCell id="e8_1_tgt" value="E1/32/2" style="edgeLabel;html=1;align=center;verticalAlign=middle;resizable=0;points=[];labelBackgroundColor=#ffffff;fontSize=10;rotation=0.00;" parent="e8_1" vertex="1" connectable="0">
          <mxGeometry x="0.5" y="0.5" width="60" height="20" relative="1" fixed="1" as="geometry">
            <mxPoint x="-16" y="-10" as="offset" />
          </mxGeometry>
        </mxCell>
        <mxCell id="e9_0" style="endArrow=none;html=1;strokeWidth=2;strokeColor=#b85450;fontSize=10;spacing=5;exitX=0.285;exitY=1.071;exitDx=0;exitDy=0;entryX=0.785;entryY=0.071;entryDx=0;entryDy=0;" parent="1" source="ds4000-02" target="ds3000-02" edge="1">
          <mxGeometry relative="1" fixed="1" as="geometry" />
        </mxCell>
        <mxCell id="e9_0_src" value="E1/3" style="edgeLabel;html=1;align=center;verticalAlign=middle;resizable=0;points=[];labelBackgroundColor=#ffffff;fontSize=10;rotation=315.00;" parent="e9_0" vertex="1" connectable="0">
          <mxGeometry x="0.5" y="0.5" width="60" height="20" relative="1" fixed="1" as="geometry">
            <mxPoint x="104" y="-146" as="offset" />
          </mxGeometry>
        </mxCell>
        <mxCell id="e9_0_tgt" value="E1/30" style="edgeLabel;html=1;align=center;verticalAlign=middle;resizable=0;points=[];labelBackgroundColor=#ffffff;fontSize=10;rotation=315.00;" parent="e9_0" vertex="1" connectable="0">
          <mxGeometry x="0.5" y="0.5" width="60" height="20" relative="1" fixed="1" as="geometry">
            <mxPoint x="-64" y="22" as="offset" />
          </mxGeometry>
        </mxCell>
        <mxCell id="e9_1" style="endArrow=none;html=1;strokeWidth=2;strokeColor=#b85450;fontSize=10;spacing=5;exitX=0.215;exitY=0.929;exitDx=0;exitDy=0;entryX=0.715;entryY=-0.071;entryDx=0;entryDy=0;" parent="1" source="ds4000-02" target="ds3000-02" edge="1">
          <mxGeometry relative="1" fixed="1" as="geometry" />
        </mxCell>
        <mxCell id="e9_1_src" value="E1/4" style="edgeLabel;html=1;align=center;verticalAlign=middle;resizable=0;points=[];labelBackgroundColor=#ffffff;fontSize=10;rotation=315.00;" parent="e9_1" vertex="1" connectable="0">
          <mxGeometry x="0.5" y="0.5" width="60" height="20" relative="1" fixed="1" as="geometry">
            <mxPoint x="104" y="-146" as="offset" />
          </mxGeometry>
        </mxCell>
        <mxCell id="e9_1_tgt" value="E1/31" style="edgeLabel;html=1;align=center;verticalAlign=middle;resizable=0;points=[];labelBackgroundColor=#ffffff;fontSize=10;rotation=315.00;" parent="e9_1" vertex="1" connectable="0">
          <mxGeometry x="0.5" y="0.5" width="60" height="20" relative="1" fixed="1" as="geometry">
            <mxPoint x="-64" y="22" as="offset" />
          </mxGeometry>
        </mxCell>
        <mxCell id="e10_0" style="endArrow=none;html=1;strokeWidth=2;strokeColor=#6c8ebf;dashed=1;fontSize=10;spacing=5;exitX=0.825;exitY=0.000;exitDx=0;exitDy=0;entryX=0.175;entryY=1.000;entryDx=0;entryDy=0;" parent="1" source="server-1" target="ds3000-01" edge="1">
          <mxGeometry relative="1" fixed="1" as="geometry" />
        </mxCell>
        <mxCell id="e10_0_src" value="enp2s1" style="edgeLabel;html=1;align=center;verticalAlign=middle;resizable=0;points=[];labelBackgroundColor=#ffffff;fontSize=10;rotation=-37.57;" parent="e10_0" vertex="1" connectable="0">
          <mxGeometry x="0.5" y="0.5" width="60" height="20" relative="1" fixed="1" as="geometry">
            <mxPoint x="-204" y="123" as="offset" />
          </mxGeometry>
        </mxCell>
        <mxCell id="e10_0_tgt" value="E1/1/2" style="edgeLabel;html=1;align=center;verticalAlign=middle;resizable=0;points=[];labelBackgroundColor=#ffffff;fontSize=10;rotation=-37.57;" parent="e10_0" vertex="1" connectable="0">
          <mxGeometry x="0.5" y="0.5" width="60" height="20" relative="1" fixed="1" as="geometry">
            <mxPoint x="16" y="-45" as="offset" />
          </mxGeometry>
        </mxCell>
        <mxCell id="e11_0" style="endArrow=none;html=1;strokeWidth=2;strokeColor=#6c8ebf;dashed=1;fontSize=10;spacing=5;exitX=0.900;exitY=0.000;exitDx=0;exitDy=0;entryX=0.100;entryY=1.000;entryDx=0;entryDy=0;" parent="1" source="server-2" target="ds3000-02" edge="1">
          <mxGeometry relative="1" fixed="1" as="geometry" />
        </mxCell>
        <mxCell id="e11_0_src" value="enp2s2" style="edgeLabel;html=1;align=center;verticalAlign=middle;resizable=0;points=[];labelBackgroundColor=#ffffff;fontSize=10;rotation=-32.01;" parent="e11_0" vertex="1" connectable="0">
          <mxGeometry x="0.5" y="0.5" width="60" height="20" relative="1" fixed="1" as="geometry">
            <mxPoint x="-249" y="124" as="offset" />
          </mxGeometry>
        </mxCell>
        <mxCell id="e11_0_tgt" value="E1/1/3" style="edgeLabel;html=1;align=center;verticalAlign=middle;resizable=0;points=[];labelBackgroundColor=#ffffff;fontSize=10;rotation=-32.01;" parent="e11_0" vertex="1" connectable="0">
          <mxGeometry x="0.5" y="0.5" width="60" height="20" relative="1" fixed="1" as="geometry">
            <mxPoint x="28" y="-47" as="offset" />
          </mxGeometry>
        </mxCell>
        <mxCell id="e12_0" style="endArrow=none;html=1;strokeWidth=2;strokeColor=#82b366;fontSize=10;spacing=5;exitX=0.425;exitY=0.010;exitDx=0;exitDy=0;entryX=0.475;entryY=1.010;entryDx=0;entryDy=0;" parent="1" source="server-3" target="ds3000-01" edge="1">
          <mxGeometry relative="1" fixed="1" as="geometry" />
        </mxCell>
        <mxCell id="e12_0_src" value="enp2s1" style="edgeLabel;html=1;align=center;verticalAlign=middle;resizable=0;points=[];labelBackgroundColor=#ffffff;fontSize=10;rotation=84.29;" parent="e12_0" vertex="1" connectable="0">
          <mxGeometry x="0.5" y="0.5" width="60" height="20" relative="1" fixed="1" as="geometry">
            <mxPoint x="-16" y="115" as="offset" />
          </mxGeometry>
        </mxCell>
        <mxCell id="e12_0_tgt" value="E1/1/4" style="edgeLabel;html=1;align=center;verticalAlign=middle;resizable=0;points=[];labelBackgroundColor=#ffffff;fontSize=10;rotation=84.29;" parent="e12_0" vertex="1" connectable="0">
          <mxGeometry x="0.5" y="0.5" width="60" height="20" relative="1" fixed="1" as="geometry">
            <mxPoint x="-31" y="-38" as="offset" />
          </mxGeometry>
        </mxCell>
        <mxCell id="e12_1" style="endArrow=none;html=1;strokeWidth=2;strokeColor=#82b366;fontSize=10;spacing=5;exitX=0.525;exitY=-0.010;exitDx=0;exitDy=0;entryX=0.575;entryY=0.990;entryDx=0;entryDy=0;" parent="1" source="server-3" target="ds3000-01" edge="1">
          <mxGeometry relative="1" fixed="1" as="geometry" />
        </mxCell>
        <mxCell id="e12_1_src" value="enp2s2" style="edgeLabel;html=1;align=center;verticalAlign=middle;resizable=0;points=[];labelBackgroundColor=#ffffff;fontSize=10;rotation=84.29;" parent="e12_1" vertex="1" connectable="0">
          <mxGeometry x="0.5" y="0.5" width="60" height="20" relative="1" fixed="1" as="geometry">
            <mxPoint x="-15" y="115" as="offset" />
          </mxGeometry>
        </mxCell>
        <mxCell id="e12_1_tgt" value="E1/2/2" style="edgeLabel;html=1;align=center;verticalAlign=middle;resizable=0;points=[];labelBackgroundColor=#ffffff;fontSize=10;rotation=84.29;" parent="e12_1" vertex="1" connectable="0">
          <mxGeometry x="0.5" y="0.5" width="60" height="20" relative="1" fixed="1" as="geometry">
            <mxPoint x="-31" y="-38" as="offset" />
          </mxGeometry>
        </mxCell>
        <mxCell id="e13_0" style="endArrow=none;html=1;strokeWidth=2;strokeColor=#666666;fontSize=10;spacing=5;exitX=0.525;exitY=0.000;exitDx=0;exitDy=0;entryX=0.475;entryY=1.000;entryDx=0;entryDy=0;" parent="1" source="server-9" target="sse-c4632-01" edge="1">
          <mxGeometry relative="1" fixed="1" as="geometry" />
        </mxCell>
        <mxCell id="e13_0_src" value="enp2s1" style="edgeLabel;html=1;align=center;verticalAlign=middle;resizable=0;points=[];labelBackgroundColor=#ffffff;fontSize=10;rotation=-84.29;" parent="e13_0" vertex="1" connectable="0">
          <mxGeometry x="0.5" y="0.5" width="60" height="20" relative="1" fixed="1" as="geometry">
            <mxPoint x="-43" y="115" as="offset" />
          </mxGeometry>
        </mxCell>
        <mxCell id="e13_0_tgt" value="E1/1/2" style="edgeLabel;html=1;align=center;verticalAlign=middle;resizable=0;points=[];labelBackgroundColor=#ffffff;fontSize=10;rotation=-84.29;" parent="e13_0" vertex="1" connectable="0">
          <mxGeometry x="0.5" y="0.5" width="60" height="20" relative="1" fixed="1" as="geometry">
            <mxPoint x="-28" y="-35" as="offset" />
          </mxGeometry>
        </mxCell>
        <mxCell id="e14_0" style="endArrow=none;html=1;strokeWidth=2;strokeColor=#b85450;fontSize=10;spacing=5;exitX=0.785;exitY=0.929;exitDx=0;exitDy=0;entryX=0.285;entryY=-0.071;entryDx=0;entryDy=0;" parent="1" source="ds4000-01" target="ds3000-03" edge="1">
          <mxGeometry relative="1" fixed="1" as="geometry" />
        </mxCell>
        <mxCell id="e14_0_src" value="E1/5" style="edgeLabel;html=1;align=center;verticalAlign=middle;resizable=0;points=[];labelBackgroundColor=#ffffff;fontSize=10;rotation=45.00;" parent="e14_0" vertex="1" connectable="0">
          <mxGeometry x="0.5" y="0.5" width="60" height="20" relative="1" fixed="1" as="geometry">
            <mxPoint x="-164" y="-146" as="offset" />
          </mxGeometry>
        </mxCell>
        <mxCell id="e14_0_tgt" value="E1/28" style="edgeLabel;html=1;align=center;verticalAlign=middle;resizable=0;points=[];labelBackgroundColor=#ffffff;fontSize=10;rotation=45.00;" parent="e14_0" vertex="1" connectable="0">
          <mxGeometry x="0.5" y="0.5" width="60" height="20" relative="1" fixed="1" as="geometry">
            <mxPoint x="3" y="22" as="offset" />
          </mxGeometry>
        </mxCell>
        <mxCell id="e14_1" style="endArrow=none;html=1;strokeWidth=2;strokeColor=#b85450;fontSize=10;spacing=5;exitX=0.715;exitY=1.071;exitDx=0;exitDy=0;entryX=0.215;entryY=0.071;entryDx=0;entryDy=0;" parent="1" source="ds4000-01" target="ds3000-03" edge="1">
          <mxGeometry relative="1" fixed="1" as="geometry" />
        </mxCell>
        <mxCell id="e14_1_src" value="E1/6" style="edgeLabel;html=1;align=center;verticalAlign=middle;resizable=0;points=[];labelBackgroundColor=#ffffff;fontSize=10;rotation=45.00;" parent="e14_1" vertex="1" connectable="0">
          <mxGeometry x="0.5" y="0.5" width="60" height="20" relative="1" fixed="1" as="geometry">
            <mxPoint x="-164" y="-146" as="offset" />
          </mxGeometry>
        </mxCell>
        <mxCell id="e14_1_tgt" value="E1/29" style="edgeLabel;html=1;align=center;verticalAlign=middle;resizable=0;points=[];labelBackgroundColor=#ffffff;fontSize=10;rotation=45.00;" parent="e14_1" vertex="1" connectable="0">
          <mxGeometry x="0.5" y="0.5" width="60" height="20" relative="1" fixed="1" as="geometry">
            <mxPoint x="3" y="22" as="offset" />
          </mxGeometry>
        </mxCell>
        <mxCell id="e15_0" style="endArrow=none;html=1;strokeWidth=2;strokeColor=#b85450;fontSize=10;spacing=5;exitX=1.022;exitY=0.911;exitDx=0;exitDy=0;entryX=0.022;entryY=-0.089;entryDx=0;entryDy=0;" parent="1" source="ds4000-01" target="sse-c4632-01" edge="1">
          <mxGeometry relative="1" fixed="1" as="geometry" />
        </mxCell>
        <mxCell id="e15_0_src" value="E1/7" style="edgeLabel;html=1;align=center;verticalAlign=middle;resizable=0;points=[];labelBackgroundColor=#ffffff;fontSize=10;rotation=26.57;" parent="e15_0" vertex="1" connectable="0">
          <mxGeometry x="0.5" y="0.5" width="60" height="20" relative="1" fixed="1" as="geometry">
            <mxPoint x="-320" y="-155" as="offset" />
          </mxGeometry>
        </mxCell>
        <mxCell id="e15_0_tgt" value="E1/28" style="edgeLabel;html=1;align=center;verticalAlign=middle;resizable=0;points=[];labelBackgroundColor=#ffffff;fontSize=10;rotation=26.57;" parent="e15_0" vertex="1" connectable="0">
          <mxGeometry x="0.5" y="0.5" width="60" height="20" relative="1" fixed="1" as="geometry">
            <mxPoint x="50" y="31" as="offset" />
          </mxGeometry>
        </mxCell>
        <mxCell id="e15_1" style="endArrow=none;html=1;strokeWidth=2;strokeColor=#b85450;fontSize=10;spacing=5;exitX=0.978;exitY=1.089;exitDx=0;exitDy=0;entryX=-0.022;entryY=0.089;entryDx=0;entryDy=0;" parent="1" source="ds4000-01" target="sse-c4632-01" edge="1">
          <mxGeometry relative="1" fixed="1" as="geometry" />
        </mxCell>
        <mxCell id="e15_1_src" value="E1/8" style="edgeLabel;html=1;align=center;verticalAlign=middle;resizable=0;points=[];labelBackgroundColor=#ffffff;fontSize=10;rotation=26.57;" parent="e15_1" vertex="1" connectable="0">
          <mxGeometry x="0.5" y="0.5" width="60" height="20" relative="1" fixed="1" as="geometry">
            <mxPoint x="-320" y="-155" as="offset" />
          </mxGeometry>
        </mxCell>
        <mxCell id="e15_1_tgt" value="E1/29" style="edgeLabel;html=1;align=center;verticalAlign=middle;resizable=0;points=[];labelBackgroundColor=#ffffff;fontSize=10;rotation=26.57;" parent="e15_1" vertex="1" connectable="0">
          <mxGeometry x="0.5" y="0.5" width="60" height="20" relative="1" fixed="1" as="geometry">
            <mxPoint x="50" y="31" as="offset" />
          </mxGeometry>
        </mxCell>
        <mxCell id="e16_0" style="endArrow=none;html=1;strokeWidth=2;strokeColor=#b85450;fontSize=10;spacing=5;exitX=0.785;exitY=0.929;exitDx=0;exitDy=0;entryX=0.285;entryY=-0.071;entryDx=0;entryDy=0;" parent="1" source="ds4000-02" target="sse-c4632-01" edge="1">
          <mxGeometry relative="1" fixed="1" as="geometry" />
        </mxCell>
        <mxCell id="e16_0_src" value="E1/7" style="edgeLabel;html=1;align=center;verticalAlign=middle;resizable=0;points=[];labelBackgroundColor=#ffffff;fontSize=10;rotation=45.00;" parent="e16_0" vertex="1" connectable="0">
          <mxGeometry x="0.5" y="0.5" width="60" height="20" relative="1" fixed="1" as="geometry">
            <mxPoint x="-164" y="-146" as="offset" />
          </mxGeometry>
        </mxCell>
        <mxCell id="e16_0_tgt" value="E1/30" style="edgeLabel;html=1;align=center;verticalAlign=middle;resizable=0;points=[];labelBackgroundColor=#ffffff;fontSize=10;rotation=45.00;" parent="e16_0" vertex="1" connectable="0">
          <mxGeometry x="0.5" y="0.5" width="60" height="20" relative="1" fixed="1" as="geometry">
            <mxPoint x="3" y="22" as="offset" />
          </mxGeometry>
        </mxCell>
        <mxCell id="e16_1" style="endArrow=none;html=1;strokeWidth=2;strokeColor=#b85450;fontSize=10;spacing=5;exitX=0.715;exitY=1.071;exitDx=0;exitDy=0;entryX=0.215;entryY=0.071;entryDx=0;entryDy=0;" parent="1" source="ds4000-02" target="sse-c4632-01" edge="1">
          <mxGeometry relative="1" fixed="1" as="geometry" />
        </mxCell>
        <mxCell id="e16_1_src" value="E1/8" style="edgeLabel;html=1;align=center;verticalAlign=middle;resizable=0;points=[];labelBackgroundColor=#ffffff;fontSize=10;rotation=45.00;" parent="e16_1" vertex="1" connectable="0">
          <mxGeometry x="0.5" y="0.5" width="60" height="20" relative="1" fixed="1" as="geometry">
            <mxPoint x="-164" y="-146" as="offset" />
          </mxGeometry>
        </mxCell>
        <mxCell id="e16_1_tgt" value="E1/31" style="edgeLabel;html=1;align=center;verticalAlign=middle;resizable=0;points=[];labelBackgroundColor=#ffffff;fontSize=10;rotation=45.00;" parent="e16_1" vertex="1" connectable="0">
          <mxGeometry x="0.5" y="0.5" width="60" height="20" relative="1" fixed="1" as="geometry">
            <mxPoint x="3" y="22" as="offset" />
          </mxGeometry>
        </mxCell>
        <mxCell id="e17_0" style="endArrow=none;html=1;strokeWidth=2;strokeColor=#d79b00;dashed=1;fontSize=10;spacing=5;exitX=0.000;exitY=0.065;exitDx=0;exitDy=0;entryX=1.000;entryY=0.935;entryDx=0;entryDy=0;" parent="1" source="server-6" target="ds3000-03" edge="1">
          <mxGeometry relative="1" fixed="1" as="geometry" />
        </mxCell>
        <mxCell id="e17_0_src" value="enp2s1" style="edgeLabel;html=1;align=center;verticalAlign=middle;resizable=0;points=[];labelBackgroundColor=#ffffff;fontSize=10;rotation=23.50;" parent="e17_0" vertex="1" connectable="0">
          <mxGeometry x="0.5" y="0.5" width="60" height="20" relative="1" fixed="1" as="geometry">
            <mxPoint x="303" y="133" as="offset" />
          </mxGeometry>
        </mxCell>
        <mxCell id="e17_0_tgt" value="E1/11/2" style="edgeLabel;html=1;align=center;verticalAlign=middle;resizable=0;points=[];labelBackgroundColor=#ffffff;fontSize=10;rotation=23.50;" parent="e17_0" vertex="1" connectable="0">
          <mxGeometry x="0.5" y="0.5" width="60" height="20" relative="1" fixed="1" as="geometry">
            <mxPoint x="-126" y="-54" as="offset" />
          </mxGeometry>
        </mxCell>
        <mxCell id="e18_0" style="endArrow=none;html=1;strokeWidth=2;strokeColor=#666666;fontSize=10;spacing=5;exitX=0.625;exitY=0.000;exitDx=0;exitDy=0;entryX=0.375;entryY=1.000;entryDx=0;entryDy=0;" parent="1" source="server-7" target="ds3000-03" edge="1">
          <mxGeometry relative="1" fixed="1" as="geometry" />
        </mxCell>
        <mxCell id="e18_0_src" value="enp2s1" style="edgeLabel;html=1;align=center;verticalAlign=middle;resizable=0;points=[];labelBackgroundColor=#ffffff;fontSize=10;rotation=-63.43;" parent="e18_0" vertex="1" connectable="0">
          <mxGeometry x="0.5" y="0.5" width="60" height="20" relative="1" fixed="1" as="geometry">
            <mxPoint x="-95" y="117" as="offset" />
          </mxGeometry>
        </mxCell>
        <mxCell id="e18_0_tgt" value="E1/1/1" style="edgeLabel;html=1;align=center;verticalAlign=middle;resizable=0;points=[];labelBackgroundColor=#ffffff;fontSize=10;rotation=-63.43;" parent="e18_0" vertex="1" connectable="0">
          <mxGeometry x="0.5" y="0.5" width="60" height="20" relative="1" fixed="1" as="geometry">
            <mxPoint x="-16" y="-39" as="offset" />
          </mxGeometry>
        </mxCell>
        <mxCell id="e19_0" style="endArrow=none;html=1;strokeWidth=2;strokeColor=#666666;fontSize=10;spacing=5;exitX=0.450;exitY=0.000;exitDx=0;exitDy=0;entryX=0.550;entryY=1.000;entryDx=0;entryDy=0;" parent="1" source="server-8" target="ds3000-03" edge="1">
          <mxGeometry relative="1" fixed="1" as="geometry" />
        </mxCell>
        <mxCell id="e19_0_src" value="enp2s1" style="edgeLabel;html=1;align=center;verticalAlign=middle;resizable=0;points=[];labelBackgroundColor=#ffffff;fontSize=10;rotation=78.69;" parent="e19_0" vertex="1" connectable="0">
          <mxGeometry x="0.5" y="0.5" width="60" height="20" relative="1" fixed="1" as="geometry">
            <mxPoint x="-3" y="115" as="offset" />
          </mxGeometry>
        </mxCell>
        <mxCell id="e19_0_tgt" value="E1/1/2" style="edgeLabel;html=1;align=center;verticalAlign=middle;resizable=0;points=[];labelBackgroundColor=#ffffff;fontSize=10;rotation=78.69;" parent="e19_0" vertex="1" connectable="0">
          <mxGeometry x="0.5" y="0.5" width="60" height="20" relative="1" fixed="1" as="geometry">
            <mxPoint x="-35" y="-38" as="offset" />
          </mxGeometry>
        </mxCell>
        <mxCell id="e20_0" style="endArrow=none;html=1;strokeWidth=2;strokeColor=#b85450;fontSize=10;spacing=5;exitX=0.285;exitY=1.071;exitDx=0;exitDy=0;entryX=0.785;entryY=0.071;entryDx=0;entryDy=0;" parent="1" source="ds4000-01" target="ds3000-01" edge="1">
          <mxGeometry relative="1" fixed="1" as="geometry" />
        </mxCell>
        <mxCell id="e20_0_src" value="E1/1" style="edgeLabel;html=1;align=center;verticalAlign=middle;resizable=0;points=[];labelBackgroundColor=#ffffff;fontSize=10;rotation=315.00;" parent="e20_0" vertex="1" connectable="0">
          <mxGeometry x="0.5" y="0.5" width="60" height="20" relative="1" fixed="1" as="geometry">
            <mxPoint x="92.92893218813452" y="-92.9289321881345" as="offset" />
          </mxGeometry>
        </mxCell>
        <mxCell id="e20_0_tgt" value="E1/28" style="edgeLabel;html=1;align=center;verticalAlign=middle;resizable=0;points=[];labelBackgroundColor=#ffffff;fontSize=10;rotation=315.00;" parent="e20_0" vertex="1" connectable="0">
          <mxGeometry x="0.5" y="0.5" width="60" height="20" relative="1" fixed="1" as="geometry">
            <mxPoint x="-64" y="23" as="offset" />
          </mxGeometry>
        </mxCell>
        <mxCell id="e20_1" style="endArrow=none;html=1;strokeWidth=2;strokeColor=#b85450;fontSize=10;spacing=5;exitX=0.215;exitY=0.929;exitDx=0;exitDy=0;entryX=0.715;entryY=-0.071;entryDx=0;entryDy=0;" parent="1" source="ds4000-01" target="ds3000-01" edge="1">
          <mxGeometry relative="1" fixed="1" as="geometry" />
        </mxCell>
        <mxCell id="e20_1_src" value="E1/2" style="edgeLabel;html=1;align=center;verticalAlign=middle;resizable=0;points=[];labelBackgroundColor=#ffffff;fontSize=10;rotation=315.00;" parent="e20_1" vertex="1" connectable="0">
          <mxGeometry x="0.5" y="0.5" width="60" height="20" relative="1" fixed="1" as="geometry">
            <mxPoint x="92.92893218813452" y="-92.92893218813455" as="offset" />
          </mxGeometry>
        </mxCell>
        <mxCell id="e20_1_tgt" value="E1/29" style="edgeLabel;html=1;align=center;verticalAlign=middle;resizable=0;points=[];labelBackgroundColor=#ffffff;fontSize=10;rotation=315.00;" parent="e20_1" vertex="1" connectable="0">
          <mxGeometry x="0.5" y="0.5" width="60" height="20" relative="1" fixed="1" as="geometry">
            <mxPoint x="-64" y="23" as="offset" />
          </mxGeometry>
        </mxCell>
        <mxCell id="e21_0" style="endArrow=none;html=1;strokeWidth=2;strokeColor=#b85450;fontSize=10;spacing=5;exitX=0.550;exitY=1.000;exitDx=0;exitDy=0;entryX=0.550;entryY=0.000;entryDx=0;entryDy=0;" parent="1" source="ds4000-01" target="ds3000-02" edge="1">
          <mxGeometry relative="1" fixed="1" as="geometry" />
        </mxCell>
        <mxCell id="e21_0_src" value="E1/3" style="edgeLabel;html=1;align=center;verticalAlign=middle;resizable=0;points=[];labelBackgroundColor=#ffffff;fontSize=10;rotation=90.00;" parent="e21_0" vertex="1" connectable="0">
          <mxGeometry x="0.5" y="0.5" width="60" height="20" relative="1" fixed="1" as="geometry">
            <mxPoint x="-30" y="-142" as="offset" />
          </mxGeometry>
        </mxCell>
        <mxCell id="e21_0_tgt" value="E1/28" style="edgeLabel;html=1;align=center;verticalAlign=middle;resizable=0;points=[];labelBackgroundColor=#ffffff;fontSize=10;rotation=90.00;" parent="e21_0" vertex="1" connectable="0">
          <mxGeometry x="0.5" y="0.5" width="60" height="20" relative="1" fixed="1" as="geometry">
            <mxPoint x="-30" y="18" as="offset" />
          </mxGeometry>
        </mxCell>
        <mxCell id="e21_1" style="endArrow=none;html=1;strokeWidth=2;strokeColor=#b85450;fontSize=10;spacing=5;exitX=0.450;exitY=1.000;exitDx=0;exitDy=0;entryX=0.450;entryY=0.000;entryDx=0;entryDy=0;" parent="1" source="ds4000-01" target="ds3000-02" edge="1">
          <mxGeometry relative="1" fixed="1" as="geometry" />
        </mxCell>
        <mxCell id="e21_1_src" value="E1/4" style="edgeLabel;html=1;align=center;verticalAlign=middle;resizable=0;points=[];labelBackgroundColor=#ffffff;fontSize=10;rotation=90.00;" parent="e21_1" vertex="1" connectable="0">
          <mxGeometry x="0.5" y="0.5" width="60" height="20" relative="1" fixed="1" as="geometry">
            <mxPoint x="-30" y="-142" as="offset" />
          </mxGeometry>
        </mxCell>
        <mxCell id="e21_1_tgt" value="E1/29" style="edgeLabel;html=1;align=center;verticalAlign=middle;resizable=0;points=[];labelBackgroundColor=#ffffff;fontSize=10;rotation=90.00;" parent="e21_1" vertex="1" connectable="0">
          <mxGeometry x="0.5" y="0.5" width="60" height="20" relative="1" fixed="1" as="geometry">
            <mxPoint x="-30" y="18" as="offset" />
          </mxGeometry>
        </mxCell>
      </root>
    </mxGraphModel>
  </diagram>
</mxfile>
